<svg width="77" height="18" viewBox="0 0 77 18" fill="none" xmlns="http://www.w3.org/2000/svg">
<path d="M7.8 17H10.594L14.774 6.418V17H17.81V1.204H13.806L9.208 12.908L4.632 1.204H0.628V17H3.664V6.506L7.8 17Z" fill="#FEFEFE"/>
<path d="M25.8782 17.198C28.7382 17.198 30.7842 15.68 31.4442 13.018H28.4082C28.0562 14.184 27.1542 14.844 25.8122 14.844C24.2502 14.844 23.3262 13.788 23.1282 11.874H31.4662C32.0162 8.046 29.5522 5.032 25.8342 5.032C22.4462 5.032 20.0042 7.584 20.0042 11.082C20.0042 14.756 22.3582 17.198 25.8782 17.198ZM25.7682 7.276C27.2202 7.276 28.1442 8.31 28.2322 9.938H23.1722C23.4362 8.2 24.3382 7.276 25.7682 7.276ZM36.5724 11.302C36.5724 8.706 38.3104 8.09 40.9064 8.288V5.12C39.0144 5.12 37.1884 6.022 36.3304 7.518V5.252H33.5144V17H36.5724V11.302ZM46.0369 2.524C46.0369 1.446 45.2009 0.675999 43.9909 0.675999C42.8029 0.675999 41.9669 1.446 41.9669 2.524C41.9669 3.558 42.8029 4.328 43.9909 4.328C45.2009 4.328 46.0369 3.558 46.0369 2.524ZM45.5529 17V5.252H42.4949V17H45.5529ZM53.3782 17.198C56.2382 17.198 58.2842 15.68 58.9442 13.018H55.9082C55.5562 14.184 54.6542 14.844 53.3122 14.844C51.7502 14.844 50.8262 13.788 50.6282 11.874H58.9662C59.5162 8.046 57.0522 5.032 53.3342 5.032C49.9462 5.032 47.5042 7.584 47.5042 11.082C47.5042 14.756 49.8582 17.198 53.3782 17.198ZM53.2682 7.276C54.7202 7.276 55.6442 8.31 55.7322 9.938H50.6722C50.9362 8.2 51.8382 7.276 53.2682 7.276ZM70.9364 13.238C70.9364 11.544 69.7704 10.488 67.4824 10.048L65.2164 9.63C64.1604 9.432 63.6764 9.146 63.6764 8.442C63.6764 7.694 64.4244 7.276 65.5464 7.276C66.8444 7.276 67.7024 7.98 67.8124 9.124H70.7384C70.5184 6.594 68.4944 5.032 65.5464 5.032C62.6204 5.032 60.7504 6.55 60.7504 8.728C60.7504 10.554 62.0264 11.72 64.1384 12.094L66.2504 12.49C67.3724 12.71 67.8564 13.018 67.8564 13.766C67.8564 14.602 66.9544 14.976 65.7664 14.976C64.2484 14.976 63.2144 14.206 63.1924 12.996H60.2664C60.5084 15.614 62.3784 17.22 65.7224 17.22C69.0664 17.22 70.9364 15.702 70.9364 13.238ZM76.6102 15.042C76.6102 13.81 75.7742 12.952 74.5642 12.952C73.3542 12.952 72.4962 13.81 72.4962 15.042C72.4962 16.252 73.3542 17.11 74.5642 17.11C75.7742 17.11 76.6102 16.252 76.6102 15.042Z" fill="#FAAD1C"/>
</svg>
